<svg xmlns="http://www.w3.org/2000/svg" viewBox="0 0 1080 478" width="1080" height="478"
     role="img" aria-labelledby="t d" font-family="ui-sans-serif, system-ui, -apple-system, 'Segoe UI', Inter, sans-serif">
<title id="t">Five hundred agents taught separately, against one signed lesson inherited by all</title>
<desc id="d">Two fields of five hundred dots each, one dot per AI agent. On the left, without a shared gate, every dot is lit separately: each agent is taught the same lesson on its own, five hundred lessons bought for one lesson learned, with no record of who decided what. On the right, with doublegate, a single bright agent writes the lesson, a reviewer that did not write it grades and signs it, and every remaining agent inherits it already approved with the signature travelling with it: one lesson, signed. The same five hundred agents and the same correction in both halves; the difference is whether the company keeps it.</desc>
<defs>
  <style><![CDATA[
    .zn  { font-size:11.5px; font-weight:700; letter-spacing:.1em; fill:#8d97a9; }
    .hd  { font-size:15px; font-weight:700; fill:#e6e9ef; }
    .big { font-size:38px; font-weight:700; letter-spacing:-.01em; }
    .nm  { font-size:13.5px; font-weight:600; fill:#e6e9ef; }
    .sb  { font-size:12.5px; fill:#97a1b2; }
    .tiny{ font-size:11.5px; fill:#8d97a9; }
    .panel { fill:#0e1118; stroke:#1e2430; stroke-width:1.4; }

    /* A reader who asks the OS for less motion gets the static figure. The
       animation only re-states what the layout already shows. */
    @media (prefers-reduced-motion: reduce) { .mover { display:none; } }
  ]]></style>
  <linearGradient id="fAlone" x1="0" y1="0" x2="0" y2="1">
    <stop offset="0" stop-color="#fb7185" stop-opacity=".85"/>
    <stop offset="1" stop-color="#fb7185" stop-opacity=".38"/>
  </linearGradient>
  <linearGradient id="fShared" x1="0" y1="0" x2="0" y2="1">
    <stop offset="0" stop-color="#22d3ee" stop-opacity=".9"/>
    <stop offset="1" stop-color="#34d399" stop-opacity=".55"/>
  </linearGradient>
  <linearGradient id="seam" x1="0" y1="0" x2="0" y2="1">
    <stop offset="0" stop-color="#1e2430" stop-opacity="0"/>
    <stop offset=".18" stop-color="#2a3342" stop-opacity="1"/>
    <stop offset=".82" stop-color="#2a3342" stop-opacity="1"/>
    <stop offset="1" stop-color="#1e2430" stop-opacity="0"/>
  </linearGradient>
  <filter id="soft" x="-70%" y="-70%" width="240%" height="240%">
    <feGaussianBlur stdDeviation="3.2" result="b"/>
    <feMerge><feMergeNode in="b"/><feMergeNode in="SourceGraphic"/></feMerge>
  </filter>
</defs>
<rect width="1080" height="478" fill="#08090c"/>
<path d="M 540 96 L 540 332" stroke="url(#seam)" stroke-width="1.4" fill="none"/>
<text class="zn" x="24" y="52" fill="#fb7185" fill-opacity=".75">WITHOUT A SHARED GATE</text>
<text class="zn" x="568.0" y="52" fill="#22d3ee" fill-opacity=".8">WITH DOUBLEGATE</text>
<text class="big" x="24" y="98" fill="url(#fAlone)">500</text>
<text class="tiny" x="112.2" y="98" fill="#fb7185" fill-opacity=".8">agents taught</text>
<text class="hd" x="24" y="124">every one taught separately</text>
<text class="big" x="568.0" y="98" fill="url(#fShared)" filter="url(#soft)">1</text>
<text class="tiny" x="604.1" y="98" fill="#22d3ee" fill-opacity=".85">agent taught</text>
<text class="hd" x="568.0" y="124">the rest inherit it</text>
<!-- 500 agents, each taught separately. No connectors, by argument:
     nothing passes between them, which is the problem being shown. -->
<g fill="url(#fAlone)">
<circle cx="34.2" cy="154.2" r="3.0"/>
<circle cx="53.2" cy="154.0" r="3.0"/>
<circle cx="72.9" cy="153.4" r="3.0"/>
<circle cx="92.1" cy="154.1" r="3.0"/>
<circle cx="111.4" cy="153.4" r="3.0"/>
<circle cx="131.0" cy="154.1" r="3.0"/>
<circle cx="151.2" cy="154.0" r="3.0"/>
<circle cx="170.5" cy="153.2" r="3.0"/>
<circle cx="189.8" cy="153.9" r="3.0"/>
<circle cx="209.9" cy="154.0" r="3.0"/>
<circle cx="228.5" cy="153.2" r="3.0"/>
<circle cx="247.9" cy="153.3" r="3.0"/>
<circle cx="267.9" cy="153.2" r="3.0"/>
<circle cx="287.3" cy="153.8" r="3.0"/>
<circle cx="307.1" cy="153.4" r="3.0"/>
<circle cx="326.4" cy="154.2" r="3.0"/>
<circle cx="345.8" cy="153.2" r="3.0"/>
<circle cx="365.6" cy="153.3" r="3.0"/>
<circle cx="385.1" cy="154.0" r="3.0"/>
<circle cx="405.2" cy="154.0" r="3.0"/>
<circle cx="423.8" cy="153.2" r="3.0"/>
<circle cx="443.4" cy="153.5" r="3.0"/>
<circle cx="463.2" cy="153.6" r="3.0"/>
<circle cx="482.6" cy="153.9" r="3.0"/>
<circle cx="502.8" cy="153.6" r="3.0"/>
<circle cx="33.3" cy="161.4" r="3.0"/>
<circle cx="53.3" cy="161.3" r="3.0"/>
<circle cx="72.5" cy="160.7" r="3.0"/>
<circle cx="91.9" cy="161.5" r="3.0"/>
<circle cx="111.7" cy="160.6" r="3.0"/>
<circle cx="130.8" cy="160.7" r="3.0"/>
<circle cx="151.4" cy="161.2" r="3.0"/>
<circle cx="170.1" cy="161.3" r="3.0"/>
<circle cx="189.7" cy="161.1" r="3.0"/>
<circle cx="209.2" cy="161.6" r="3.0"/>
<circle cx="228.5" cy="160.9" r="3.0"/>
<circle cx="248.6" cy="160.8" r="3.0"/>
<circle cx="267.8" cy="161.5" r="3.0"/>
<circle cx="287.3" cy="161.0" r="3.0"/>
<circle cx="306.5" cy="161.0" r="3.0"/>
<circle cx="326.6" cy="160.7" r="3.0"/>
<circle cx="345.9" cy="161.2" r="3.0"/>
<circle cx="365.3" cy="161.0" r="3.0"/>
<circle cx="385.1" cy="160.6" r="3.0"/>
<circle cx="404.3" cy="161.6" r="3.0"/>
<circle cx="424.5" cy="161.5" r="3.0"/>
<circle cx="443.7" cy="161.6" r="3.0"/>
<circle cx="463.6" cy="161.0" r="3.0"/>
<circle cx="482.4" cy="160.7" r="3.0"/>
<circle cx="502.6" cy="161.6" r="3.0"/>
<circle cx="33.5" cy="168.7" r="3.0"/>
<circle cx="53.4" cy="168.9" r="3.0"/>
<circle cx="72.3" cy="169.0" r="3.0"/>
<circle cx="92.7" cy="168.7" r="3.0"/>
<circle cx="112.2" cy="168.8" r="3.0"/>
<circle cx="131.6" cy="168.0" r="3.0"/>
<circle cx="150.7" cy="168.4" r="3.0"/>
<circle cx="170.1" cy="168.6" r="3.0"/>
<circle cx="189.7" cy="168.2" r="3.0"/>
<circle cx="209.9" cy="168.7" r="3.0"/>
<circle cx="228.9" cy="168.6" r="3.0"/>
<circle cx="248.6" cy="169.0" r="3.0"/>
<circle cx="267.9" cy="168.8" r="3.0"/>
<circle cx="287.1" cy="168.1" r="3.0"/>
<circle cx="307.4" cy="168.5" r="3.0"/>
<circle cx="326.8" cy="168.7" r="3.0"/>
<circle cx="345.7" cy="168.1" r="3.0"/>
<circle cx="365.5" cy="168.1" r="3.0"/>
<circle cx="385.6" cy="168.7" r="3.0"/>
<circle cx="404.6" cy="168.0" r="3.0"/>
<circle cx="424.3" cy="168.9" r="3.0"/>
<circle cx="443.7" cy="168.8" r="3.0"/>
<circle cx="463.0" cy="168.9" r="3.0"/>
<circle cx="482.6" cy="169.0" r="3.0"/>
<circle cx="502.3" cy="168.0" r="3.0"/>
<circle cx="34.0" cy="175.9" r="3.0"/>
<circle cx="53.2" cy="175.9" r="3.0"/>
<circle cx="72.8" cy="176.0" r="3.0"/>
<circle cx="92.5" cy="176.4" r="3.0"/>
<circle cx="111.7" cy="175.8" r="3.0"/>
<circle cx="131.3" cy="176.2" r="3.0"/>
<circle cx="150.7" cy="176.1" r="3.0"/>
<circle cx="170.4" cy="176.1" r="3.0"/>
<circle cx="189.6" cy="176.1" r="3.0"/>
<circle cx="209.9" cy="176.1" r="3.0"/>
<circle cx="228.7" cy="176.2" r="3.0"/>
<circle cx="248.1" cy="176.3" r="3.0"/>
<circle cx="267.9" cy="175.6" r="3.0"/>
<circle cx="288.0" cy="175.7" r="3.0"/>
<circle cx="306.5" cy="175.8" r="3.0"/>
<circle cx="326.1" cy="175.8" r="3.0"/>
<circle cx="346.1" cy="176.0" r="3.0"/>
<circle cx="365.2" cy="176.4" r="3.0"/>
<circle cx="384.7" cy="176.4" r="3.0"/>
<circle cx="404.4" cy="175.7" r="3.0"/>
<circle cx="424.4" cy="176.1" r="3.0"/>
<circle cx="443.2" cy="175.9" r="3.0"/>
<circle cx="463.7" cy="175.7" r="3.0"/>
<circle cx="482.7" cy="175.4" r="3.0"/>
<circle cx="501.9" cy="175.6" r="3.0"/>
<circle cx="33.6" cy="183.1" r="3.0"/>
<circle cx="53.3" cy="182.9" r="3.0"/>
<circle cx="73.2" cy="183.7" r="3.0"/>
<circle cx="92.1" cy="183.0" r="3.0"/>
<circle cx="111.3" cy="183.1" r="3.0"/>
<circle cx="130.9" cy="183.8" r="3.0"/>
<circle cx="151.2" cy="183.0" r="3.0"/>
<circle cx="170.6" cy="183.0" r="3.0"/>
<circle cx="190.4" cy="183.3" r="3.0"/>
<circle cx="209.3" cy="183.8" r="3.0"/>
<circle cx="229.3" cy="183.0" r="3.0"/>
<circle cx="248.3" cy="182.8" r="3.0"/>
<circle cx="267.6" cy="182.8" r="3.0"/>
<circle cx="287.9" cy="183.3" r="3.0"/>
<circle cx="306.9" cy="182.8" r="3.0"/>
<circle cx="326.7" cy="183.6" r="3.0"/>
<circle cx="346.6" cy="183.8" r="3.0"/>
<circle cx="366.1" cy="183.1" r="3.0"/>
<circle cx="384.7" cy="183.6" r="3.0"/>
<circle cx="405.1" cy="183.4" r="3.0"/>
<circle cx="424.1" cy="183.3" r="3.0"/>
<circle cx="444.1" cy="183.4" r="3.0"/>
<circle cx="463.1" cy="182.8" r="3.0"/>
<circle cx="483.0" cy="183.8" r="3.0"/>
<circle cx="502.4" cy="183.4" r="3.0"/>
<circle cx="33.7" cy="191.0" r="3.0"/>
<circle cx="53.2" cy="191.1" r="3.0"/>
<circle cx="73.0" cy="190.4" r="3.0"/>
<circle cx="92.3" cy="191.2" r="3.0"/>
<circle cx="111.8" cy="190.9" r="3.0"/>
<circle cx="131.8" cy="190.2" r="3.0"/>
<circle cx="151.2" cy="190.6" r="3.0"/>
<circle cx="170.6" cy="190.4" r="3.0"/>
<circle cx="189.5" cy="190.6" r="3.0"/>
<circle cx="209.2" cy="190.4" r="3.0"/>
<circle cx="229.2" cy="191.2" r="3.0"/>
<circle cx="248.7" cy="190.4" r="3.0"/>
<circle cx="267.9" cy="191.2" r="3.0"/>
<circle cx="287.1" cy="191.1" r="3.0"/>
<circle cx="306.8" cy="190.2" r="3.0"/>
<circle cx="326.5" cy="190.9" r="3.0"/>
<circle cx="345.6" cy="191.0" r="3.0"/>
<circle cx="365.5" cy="190.8" r="3.0"/>
<circle cx="385.5" cy="190.8" r="3.0"/>
<circle cx="404.8" cy="190.6" r="3.0"/>
<circle cx="423.8" cy="190.7" r="3.0"/>
<circle cx="444.2" cy="190.2" r="3.0"/>
<circle cx="462.9" cy="190.7" r="3.0"/>
<circle cx="482.5" cy="190.4" r="3.0"/>
<circle cx="501.7" cy="190.7" r="3.0"/>
<circle cx="34.3" cy="198.3" r="3.0"/>
<circle cx="53.7" cy="198.4" r="3.0"/>
<circle cx="72.9" cy="197.9" r="3.0"/>
<circle cx="92.0" cy="198.3" r="3.0"/>
<circle cx="111.8" cy="197.6" r="3.0"/>
<circle cx="131.4" cy="197.9" r="3.0"/>
<circle cx="151.2" cy="198.5" r="3.0"/>
<circle cx="170.2" cy="198.1" r="3.0"/>
<circle cx="190.4" cy="198.4" r="3.0"/>
<circle cx="209.7" cy="197.6" r="3.0"/>
<circle cx="229.2" cy="197.9" r="3.0"/>
<circle cx="248.3" cy="197.7" r="3.0"/>
<circle cx="268.4" cy="198.3" r="3.0"/>
<circle cx="287.4" cy="197.8" r="3.0"/>
<circle cx="307.0" cy="197.9" r="3.0"/>
<circle cx="326.7" cy="198.5" r="3.0"/>
<circle cx="345.7" cy="197.7" r="3.0"/>
<circle cx="365.8" cy="198.2" r="3.0"/>
<circle cx="385.5" cy="198.5" r="3.0"/>
<circle cx="404.2" cy="197.7" r="3.0"/>
<circle cx="423.7" cy="198.3" r="3.0"/>
<circle cx="444.1" cy="198.4" r="3.0"/>
<circle cx="462.9" cy="197.8" r="3.0"/>
<circle cx="482.4" cy="198.6" r="3.0"/>
<circle cx="502.8" cy="198.3" r="3.0"/>
<circle cx="33.8" cy="205.2" r="3.0"/>
<circle cx="53.3" cy="205.8" r="3.0"/>
<circle cx="72.4" cy="205.4" r="3.0"/>
<circle cx="92.8" cy="205.0" r="3.0"/>
<circle cx="111.8" cy="205.0" r="3.0"/>
<circle cx="131.4" cy="205.1" r="3.0"/>
<circle cx="151.2" cy="205.9" r="3.0"/>
<circle cx="170.8" cy="205.7" r="3.0"/>
<circle cx="190.5" cy="205.2" r="3.0"/>
<circle cx="209.1" cy="205.1" r="3.0"/>
<circle cx="228.8" cy="206.0" r="3.0"/>
<circle cx="248.0" cy="205.8" r="3.0"/>
<circle cx="267.5" cy="205.7" r="3.0"/>
<circle cx="288.0" cy="205.8" r="3.0"/>
<circle cx="307.0" cy="205.1" r="3.0"/>
<circle cx="326.9" cy="205.9" r="3.0"/>
<circle cx="345.9" cy="205.5" r="3.0"/>
<circle cx="366.0" cy="205.3" r="3.0"/>
<circle cx="384.7" cy="205.6" r="3.0"/>
<circle cx="404.1" cy="205.5" r="3.0"/>
<circle cx="423.9" cy="205.0" r="3.0"/>
<circle cx="443.7" cy="205.2" r="3.0"/>
<circle cx="463.6" cy="205.5" r="3.0"/>
<circle cx="482.4" cy="205.1" r="3.0"/>
<circle cx="502.0" cy="205.1" r="3.0"/>
<circle cx="33.9" cy="212.7" r="3.0"/>
<circle cx="52.9" cy="212.6" r="3.0"/>
<circle cx="72.4" cy="213.1" r="3.0"/>
<circle cx="92.7" cy="212.7" r="3.0"/>
<circle cx="111.7" cy="213.0" r="3.0"/>
<circle cx="130.8" cy="212.8" r="3.0"/>
<circle cx="151.3" cy="213.0" r="3.0"/>
<circle cx="170.6" cy="212.5" r="3.0"/>
<circle cx="190.4" cy="213.3" r="3.0"/>
<circle cx="209.8" cy="212.8" r="3.0"/>
<circle cx="228.8" cy="212.9" r="3.0"/>
<circle cx="248.1" cy="213.2" r="3.0"/>
<circle cx="268.5" cy="212.6" r="3.0"/>
<circle cx="287.4" cy="213.4" r="3.0"/>
<circle cx="307.0" cy="212.8" r="3.0"/>
<circle cx="326.1" cy="212.4" r="3.0"/>
<circle cx="346.4" cy="213.0" r="3.0"/>
<circle cx="365.6" cy="213.3" r="3.0"/>
<circle cx="384.6" cy="213.2" r="3.0"/>
<circle cx="405.1" cy="213.3" r="3.0"/>
<circle cx="423.8" cy="213.1" r="3.0"/>
<circle cx="443.6" cy="213.0" r="3.0"/>
<circle cx="463.0" cy="213.1" r="3.0"/>
<circle cx="482.4" cy="212.8" r="3.0"/>
<circle cx="502.3" cy="212.9" r="3.0"/>
<circle cx="33.4" cy="220.4" r="3.0"/>
<circle cx="53.8" cy="220.6" r="3.0"/>
<circle cx="72.8" cy="220.3" r="3.0"/>
<circle cx="92.0" cy="220.7" r="3.0"/>
<circle cx="111.9" cy="220.1" r="3.0"/>
<circle cx="131.6" cy="220.2" r="3.0"/>
<circle cx="150.7" cy="220.4" r="3.0"/>
<circle cx="170.7" cy="219.8" r="3.0"/>
<circle cx="189.7" cy="219.8" r="3.0"/>
<circle cx="210.0" cy="219.8" r="3.0"/>
<circle cx="228.5" cy="220.5" r="3.0"/>
<circle cx="248.8" cy="220.1" r="3.0"/>
<circle cx="267.9" cy="220.4" r="3.0"/>
<circle cx="287.5" cy="220.8" r="3.0"/>
<circle cx="307.6" cy="220.6" r="3.0"/>
<circle cx="326.3" cy="219.9" r="3.0"/>
<circle cx="346.6" cy="220.7" r="3.0"/>
<circle cx="365.9" cy="220.4" r="3.0"/>
<circle cx="385.1" cy="220.1" r="3.0"/>
<circle cx="404.9" cy="220.0" r="3.0"/>
<circle cx="424.2" cy="220.7" r="3.0"/>
<circle cx="443.4" cy="219.9" r="3.0"/>
<circle cx="463.3" cy="220.0" r="3.0"/>
<circle cx="482.3" cy="220.1" r="3.0"/>
<circle cx="502.6" cy="220.8" r="3.0"/>
<circle cx="33.8" cy="227.7" r="3.0"/>
<circle cx="52.8" cy="227.4" r="3.0"/>
<circle cx="72.4" cy="228.2" r="3.0"/>
<circle cx="92.9" cy="227.8" r="3.0"/>
<circle cx="112.3" cy="227.3" r="3.0"/>
<circle cx="131.0" cy="227.3" r="3.0"/>
<circle cx="151.2" cy="228.0" r="3.0"/>
<circle cx="170.6" cy="227.5" r="3.0"/>
<circle cx="190.2" cy="227.5" r="3.0"/>
<circle cx="209.1" cy="227.2" r="3.0"/>
<circle cx="229.2" cy="227.9" r="3.0"/>
<circle cx="248.3" cy="227.8" r="3.0"/>
<circle cx="268.5" cy="227.7" r="3.0"/>
<circle cx="287.5" cy="228.2" r="3.0"/>
<circle cx="306.7" cy="228.2" r="3.0"/>
<circle cx="326.3" cy="227.5" r="3.0"/>
<circle cx="346.6" cy="228.1" r="3.0"/>
<circle cx="365.1" cy="228.1" r="3.0"/>
<circle cx="385.6" cy="227.3" r="3.0"/>
<circle cx="404.8" cy="227.3" r="3.0"/>
<circle cx="424.6" cy="227.7" r="3.0"/>
<circle cx="443.7" cy="228.2" r="3.0"/>
<circle cx="463.0" cy="227.4" r="3.0"/>
<circle cx="483.0" cy="227.2" r="3.0"/>
<circle cx="502.3" cy="227.8" r="3.0"/>
<circle cx="33.5" cy="235.0" r="3.0"/>
<circle cx="52.7" cy="234.8" r="3.0"/>
<circle cx="72.3" cy="235.4" r="3.0"/>
<circle cx="92.0" cy="234.9" r="3.0"/>
<circle cx="112.3" cy="234.6" r="3.0"/>
<circle cx="131.5" cy="234.9" r="3.0"/>
<circle cx="150.3" cy="235.0" r="3.0"/>
<circle cx="170.3" cy="234.7" r="3.0"/>
<circle cx="189.7" cy="234.9" r="3.0"/>
<circle cx="209.0" cy="235.0" r="3.0"/>
<circle cx="229.3" cy="234.9" r="3.0"/>
<circle cx="248.3" cy="234.8" r="3.0"/>
<circle cx="268.1" cy="235.5" r="3.0"/>
<circle cx="287.3" cy="234.7" r="3.0"/>
<circle cx="307.1" cy="235.4" r="3.0"/>
<circle cx="326.8" cy="235.5" r="3.0"/>
<circle cx="346.6" cy="234.7" r="3.0"/>
<circle cx="365.7" cy="234.9" r="3.0"/>
<circle cx="385.0" cy="234.9" r="3.0"/>
<circle cx="404.3" cy="235.1" r="3.0"/>
<circle cx="424.3" cy="235.4" r="3.0"/>
<circle cx="443.6" cy="234.9" r="3.0"/>
<circle cx="462.7" cy="235.6" r="3.0"/>
<circle cx="482.3" cy="234.8" r="3.0"/>
<circle cx="502.0" cy="235.6" r="3.0"/>
<circle cx="34.0" cy="242.6" r="3.0"/>
<circle cx="53.1" cy="242.2" r="3.0"/>
<circle cx="72.8" cy="242.4" r="3.0"/>
<circle cx="92.9" cy="242.3" r="3.0"/>
<circle cx="112.3" cy="242.7" r="3.0"/>
<circle cx="131.4" cy="242.4" r="3.0"/>
<circle cx="150.6" cy="242.0" r="3.0"/>
<circle cx="170.2" cy="242.7" r="3.0"/>
<circle cx="190.2" cy="242.3" r="3.0"/>
<circle cx="209.7" cy="242.3" r="3.0"/>
<circle cx="228.7" cy="242.4" r="3.0"/>
<circle cx="248.3" cy="242.4" r="3.0"/>
<circle cx="267.5" cy="242.3" r="3.0"/>
<circle cx="287.9" cy="242.5" r="3.0"/>
<circle cx="307.2" cy="242.2" r="3.0"/>
<circle cx="326.3" cy="243.0" r="3.0"/>
<circle cx="346.4" cy="243.0" r="3.0"/>
<circle cx="365.3" cy="243.0" r="3.0"/>
<circle cx="385.3" cy="242.0" r="3.0"/>
<circle cx="404.9" cy="242.4" r="3.0"/>
<circle cx="423.8" cy="242.6" r="3.0"/>
<circle cx="444.1" cy="242.7" r="3.0"/>
<circle cx="463.1" cy="242.1" r="3.0"/>
<circle cx="482.6" cy="242.4" r="3.0"/>
<circle cx="501.7" cy="243.0" r="3.0"/>
<circle cx="33.6" cy="249.5" r="3.0"/>
<circle cx="53.7" cy="249.5" r="3.0"/>
<circle cx="72.5" cy="249.7" r="3.0"/>
<circle cx="92.9" cy="249.6" r="3.0"/>
<circle cx="111.8" cy="250.2" r="3.0"/>
<circle cx="131.3" cy="249.9" r="3.0"/>
<circle cx="150.8" cy="250.0" r="3.0"/>
<circle cx="170.4" cy="250.0" r="3.0"/>
<circle cx="190.3" cy="250.0" r="3.0"/>
<circle cx="209.9" cy="249.4" r="3.0"/>
<circle cx="229.0" cy="249.5" r="3.0"/>
<circle cx="248.8" cy="249.7" r="3.0"/>
<circle cx="267.5" cy="249.4" r="3.0"/>
<circle cx="287.8" cy="249.6" r="3.0"/>
<circle cx="307.5" cy="250.1" r="3.0"/>
<circle cx="326.9" cy="250.1" r="3.0"/>
<circle cx="345.9" cy="249.4" r="3.0"/>
<circle cx="365.3" cy="249.5" r="3.0"/>
<circle cx="385.1" cy="249.7" r="3.0"/>
<circle cx="404.8" cy="249.5" r="3.0"/>
<circle cx="423.8" cy="249.4" r="3.0"/>
<circle cx="443.5" cy="249.7" r="3.0"/>
<circle cx="463.2" cy="249.8" r="3.0"/>
<circle cx="482.3" cy="250.3" r="3.0"/>
<circle cx="501.8" cy="249.7" r="3.0"/>
<circle cx="34.0" cy="257.5" r="3.0"/>
<circle cx="53.4" cy="257.4" r="3.0"/>
<circle cx="72.4" cy="257.8" r="3.0"/>
<circle cx="92.3" cy="257.1" r="3.0"/>
<circle cx="112.2" cy="257.0" r="3.0"/>
<circle cx="131.6" cy="257.3" r="3.0"/>
<circle cx="150.6" cy="256.9" r="3.0"/>
<circle cx="170.5" cy="257.8" r="3.0"/>
<circle cx="189.6" cy="257.7" r="3.0"/>
<circle cx="209.4" cy="257.6" r="3.0"/>
<circle cx="229.5" cy="257.2" r="3.0"/>
<circle cx="248.7" cy="257.1" r="3.0"/>
<circle cx="267.8" cy="257.8" r="3.0"/>
<circle cx="287.3" cy="256.9" r="3.0"/>
<circle cx="307.5" cy="257.8" r="3.0"/>
<circle cx="326.7" cy="256.8" r="3.0"/>
<circle cx="346.2" cy="256.9" r="3.0"/>
<circle cx="365.4" cy="257.0" r="3.0"/>
<circle cx="385.4" cy="257.3" r="3.0"/>
<circle cx="404.8" cy="257.5" r="3.0"/>
<circle cx="423.9" cy="257.8" r="3.0"/>
<circle cx="444.1" cy="257.5" r="3.0"/>
<circle cx="463.6" cy="257.5" r="3.0"/>
<circle cx="482.4" cy="257.7" r="3.0"/>
<circle cx="502.0" cy="257.3" r="3.0"/>
<circle cx="33.3" cy="265.1" r="3.0"/>
<circle cx="53.2" cy="264.2" r="3.0"/>
<circle cx="72.5" cy="264.3" r="3.0"/>
<circle cx="92.8" cy="264.3" r="3.0"/>
<circle cx="112.2" cy="264.2" r="3.0"/>
<circle cx="131.7" cy="265.1" r="3.0"/>
<circle cx="150.8" cy="265.1" r="3.0"/>
<circle cx="170.8" cy="264.5" r="3.0"/>
<circle cx="189.4" cy="264.4" r="3.0"/>
<circle cx="209.6" cy="265.0" r="3.0"/>
<circle cx="229.0" cy="264.7" r="3.0"/>
<circle cx="248.9" cy="265.0" r="3.0"/>
<circle cx="267.8" cy="264.2" r="3.0"/>
<circle cx="287.0" cy="264.6" r="3.0"/>
<circle cx="306.9" cy="265.0" r="3.0"/>
<circle cx="326.0" cy="264.5" r="3.0"/>
<circle cx="346.0" cy="264.7" r="3.0"/>
<circle cx="365.7" cy="264.7" r="3.0"/>
<circle cx="384.8" cy="265.0" r="3.0"/>
<circle cx="404.8" cy="264.4" r="3.0"/>
<circle cx="424.3" cy="264.7" r="3.0"/>
<circle cx="443.2" cy="264.9" r="3.0"/>
<circle cx="463.7" cy="264.9" r="3.0"/>
<circle cx="482.3" cy="264.6" r="3.0"/>
<circle cx="502.3" cy="264.8" r="3.0"/>
<circle cx="34.2" cy="272.3" r="3.0"/>
<circle cx="52.8" cy="272.1" r="3.0"/>
<circle cx="72.6" cy="272.1" r="3.0"/>
<circle cx="92.6" cy="271.6" r="3.0"/>
<circle cx="111.7" cy="272.3" r="3.0"/>
<circle cx="131.6" cy="271.9" r="3.0"/>
<circle cx="150.6" cy="271.7" r="3.0"/>
<circle cx="170.7" cy="272.2" r="3.0"/>
<circle cx="189.8" cy="272.2" r="3.0"/>
<circle cx="209.1" cy="272.0" r="3.0"/>
<circle cx="229.0" cy="271.8" r="3.0"/>
<circle cx="249.0" cy="272.1" r="3.0"/>
<circle cx="268.4" cy="272.3" r="3.0"/>
<circle cx="287.4" cy="272.2" r="3.0"/>
<circle cx="307.5" cy="272.6" r="3.0"/>
<circle cx="327.0" cy="272.5" r="3.0"/>
<circle cx="345.8" cy="271.6" r="3.0"/>
<circle cx="365.8" cy="271.6" r="3.0"/>
<circle cx="385.0" cy="272.5" r="3.0"/>
<circle cx="405.0" cy="272.1" r="3.0"/>
<circle cx="424.2" cy="272.6" r="3.0"/>
<circle cx="444.2" cy="271.9" r="3.0"/>
<circle cx="462.9" cy="271.8" r="3.0"/>
<circle cx="483.0" cy="272.4" r="3.0"/>
<circle cx="502.5" cy="272.3" r="3.0"/>
<circle cx="34.3" cy="279.4" r="3.0"/>
<circle cx="53.8" cy="279.4" r="3.0"/>
<circle cx="72.7" cy="279.3" r="3.0"/>
<circle cx="92.4" cy="279.3" r="3.0"/>
<circle cx="112.1" cy="279.9" r="3.0"/>
<circle cx="131.1" cy="280.0" r="3.0"/>
<circle cx="150.3" cy="279.2" r="3.0"/>
<circle cx="170.4" cy="279.5" r="3.0"/>
<circle cx="189.8" cy="279.1" r="3.0"/>
<circle cx="209.7" cy="279.0" r="3.0"/>
<circle cx="228.8" cy="279.4" r="3.0"/>
<circle cx="248.2" cy="279.1" r="3.0"/>
<circle cx="268.0" cy="279.8" r="3.0"/>
<circle cx="287.7" cy="279.9" r="3.0"/>
<circle cx="307.2" cy="279.0" r="3.0"/>
<circle cx="326.1" cy="279.5" r="3.0"/>
<circle cx="346.1" cy="279.2" r="3.0"/>
<circle cx="365.5" cy="280.0" r="3.0"/>
<circle cx="385.3" cy="279.9" r="3.0"/>
<circle cx="404.4" cy="279.7" r="3.0"/>
<circle cx="424.6" cy="279.6" r="3.0"/>
<circle cx="443.9" cy="279.5" r="3.0"/>
<circle cx="463.4" cy="279.0" r="3.0"/>
<circle cx="482.4" cy="279.7" r="3.0"/>
<circle cx="502.8" cy="279.8" r="3.0"/>
<circle cx="34.0" cy="287.4" r="3.0"/>
<circle cx="53.4" cy="286.8" r="3.0"/>
<circle cx="72.5" cy="286.4" r="3.0"/>
<circle cx="91.8" cy="287.1" r="3.0"/>
<circle cx="111.3" cy="287.2" r="3.0"/>
<circle cx="131.4" cy="286.4" r="3.0"/>
<circle cx="151.1" cy="287.3" r="3.0"/>
<circle cx="170.6" cy="287.1" r="3.0"/>
<circle cx="189.8" cy="287.2" r="3.0"/>
<circle cx="209.5" cy="287.1" r="3.0"/>
<circle cx="229.0" cy="287.3" r="3.0"/>
<circle cx="248.5" cy="286.7" r="3.0"/>
<circle cx="268.4" cy="287.3" r="3.0"/>
<circle cx="287.8" cy="286.7" r="3.0"/>
<circle cx="306.8" cy="287.2" r="3.0"/>
<circle cx="326.2" cy="286.6" r="3.0"/>
<circle cx="346.6" cy="287.4" r="3.0"/>
<circle cx="366.0" cy="286.5" r="3.0"/>
<circle cx="385.6" cy="287.0" r="3.0"/>
<circle cx="404.1" cy="286.4" r="3.0"/>
<circle cx="424.0" cy="286.4" r="3.0"/>
<circle cx="443.4" cy="286.6" r="3.0"/>
<circle cx="463.4" cy="286.4" r="3.0"/>
<circle cx="482.4" cy="286.7" r="3.0"/>
<circle cx="502.8" cy="286.9" r="3.0"/>
<circle cx="34.2" cy="294.5" r="3.0"/>
<circle cx="53.5" cy="294.3" r="3.0"/>
<circle cx="73.0" cy="293.8" r="3.0"/>
<circle cx="92.8" cy="293.9" r="3.0"/>
<circle cx="111.9" cy="294.1" r="3.0"/>
<circle cx="130.9" cy="294.3" r="3.0"/>
<circle cx="151.2" cy="294.7" r="3.0"/>
<circle cx="170.9" cy="293.9" r="3.0"/>
<circle cx="190.2" cy="294.5" r="3.0"/>
<circle cx="209.4" cy="294.4" r="3.0"/>
<circle cx="228.7" cy="294.2" r="3.0"/>
<circle cx="248.3" cy="294.6" r="3.0"/>
<circle cx="267.6" cy="294.7" r="3.0"/>
<circle cx="287.9" cy="294.3" r="3.0"/>
<circle cx="307.5" cy="293.9" r="3.0"/>
<circle cx="326.4" cy="294.1" r="3.0"/>
<circle cx="346.6" cy="294.1" r="3.0"/>
<circle cx="365.1" cy="294.6" r="3.0"/>
<circle cx="384.6" cy="294.5" r="3.0"/>
<circle cx="404.1" cy="294.2" r="3.0"/>
<circle cx="424.5" cy="294.0" r="3.0"/>
<circle cx="443.8" cy="294.7" r="3.0"/>
<circle cx="463.3" cy="294.2" r="3.0"/>
<circle cx="482.6" cy="294.4" r="3.0"/>
<circle cx="502.8" cy="294.2" r="3.0"/>
</g>
<!-- the same 500. One is the author; the rest inherit what it wrote,
     already signed. Again no connectors: inheritance is a state, not
     a journey, and the journey is what how-it-works.html draws. -->
<g fill="url(#fShared)" fill-opacity=".46">
<circle cx="577.5" cy="153.4" r="3.0"/>
<circle cx="596.9" cy="153.8" r="3.0"/>
<circle cx="616.6" cy="153.2" r="3.0"/>
<circle cx="636.3" cy="154.2" r="3.0"/>
<circle cx="656.4" cy="153.6" r="3.0"/>
<circle cx="675.8" cy="154.1" r="3.0"/>
<circle cx="694.6" cy="154.0" r="3.0"/>
<circle cx="714.6" cy="153.4" r="3.0"/>
<circle cx="733.5" cy="154.0" r="3.0"/>
<circle cx="753.9" cy="153.2" r="3.0"/>
<circle cx="772.7" cy="153.3" r="3.0"/>
<circle cx="792.8" cy="153.4" r="3.0"/>
<circle cx="812.5" cy="153.3" r="3.0"/>
<circle cx="831.9" cy="154.1" r="3.0"/>
<circle cx="850.8" cy="154.0" r="3.0"/>
<circle cx="870.3" cy="154.2" r="3.0"/>
<circle cx="890.4" cy="153.7" r="3.0"/>
<circle cx="909.4" cy="154.1" r="3.0"/>
<circle cx="929.0" cy="153.3" r="3.0"/>
<circle cx="948.3" cy="153.4" r="3.0"/>
<circle cx="967.9" cy="153.2" r="3.0"/>
<circle cx="987.5" cy="154.2" r="3.0"/>
<circle cx="1007.0" cy="153.7" r="3.0"/>
<circle cx="1026.9" cy="154.1" r="3.0"/>
<circle cx="1046.3" cy="153.8" r="3.0"/>
<circle cx="577.8" cy="161.2" r="3.0"/>
<circle cx="596.9" cy="160.9" r="3.0"/>
<circle cx="616.7" cy="160.8" r="3.0"/>
<circle cx="636.7" cy="160.8" r="3.0"/>
<circle cx="656.0" cy="161.2" r="3.0"/>
<circle cx="675.3" cy="160.8" r="3.0"/>
<circle cx="694.5" cy="161.3" r="3.0"/>
<circle cx="714.5" cy="161.3" r="3.0"/>
<circle cx="733.5" cy="161.5" r="3.0"/>
<circle cx="753.9" cy="161.0" r="3.0"/>
<circle cx="772.6" cy="160.6" r="3.0"/>
<circle cx="792.0" cy="161.0" r="3.0"/>
<circle cx="812.0" cy="160.7" r="3.0"/>
<circle cx="832.1" cy="161.4" r="3.0"/>
<circle cx="851.1" cy="161.5" r="3.0"/>
<circle cx="870.9" cy="160.8" r="3.0"/>
<circle cx="889.6" cy="160.6" r="3.0"/>
<circle cx="909.1" cy="161.0" r="3.0"/>
<circle cx="929.0" cy="161.0" r="3.0"/>
<circle cx="948.6" cy="161.0" r="3.0"/>
<circle cx="967.8" cy="160.9" r="3.0"/>
<circle cx="987.2" cy="161.2" r="3.0"/>
<circle cx="1007.0" cy="160.7" r="3.0"/>
<circle cx="1027.2" cy="161.6" r="3.0"/>
<circle cx="1046.7" cy="160.8" r="3.0"/>
<circle cx="577.4" cy="168.6" r="3.0"/>
<circle cx="597.1" cy="168.2" r="3.0"/>
<circle cx="616.5" cy="168.7" r="3.0"/>
<circle cx="636.8" cy="168.2" r="3.0"/>
<circle cx="655.4" cy="168.3" r="3.0"/>
<circle cx="675.7" cy="168.0" r="3.0"/>
<circle cx="694.4" cy="168.6" r="3.0"/>
<circle cx="714.0" cy="168.1" r="3.0"/>
<circle cx="733.5" cy="168.4" r="3.0"/>
<circle cx="752.9" cy="168.3" r="3.0"/>
<circle cx="773.1" cy="168.0" r="3.0"/>
<circle cx="792.0" cy="168.6" r="3.0"/>
<circle cx="812.2" cy="168.3" r="3.0"/>
<circle cx="831.3" cy="168.0" r="3.0"/>
<circle cx="850.9" cy="168.1" r="3.0"/>
<circle cx="870.5" cy="168.1" r="3.0"/>
<circle cx="890.1" cy="168.6" r="3.0"/>
<circle cx="909.8" cy="168.4" r="3.0"/>
<circle cx="928.9" cy="168.6" r="3.0"/>
<circle cx="948.7" cy="168.5" r="3.0"/>
<circle cx="967.8" cy="168.9" r="3.0"/>
<circle cx="988.2" cy="168.1" r="3.0"/>
<circle cx="1007.4" cy="168.0" r="3.0"/>
<circle cx="1027.1" cy="168.2" r="3.0"/>
<circle cx="1045.8" cy="169.0" r="3.0"/>
<circle cx="577.9" cy="175.8" r="3.0"/>
<circle cx="597.8" cy="176.3" r="3.0"/>
<circle cx="616.5" cy="175.4" r="3.0"/>
<circle cx="636.0" cy="175.4" r="3.0"/>
<circle cx="656.1" cy="175.7" r="3.0"/>
<circle cx="675.8" cy="175.9" r="3.0"/>
<circle cx="695.1" cy="175.6" r="3.0"/>
<circle cx="714.1" cy="175.7" r="3.0"/>
<circle cx="734.1" cy="175.7" r="3.0"/>
<circle cx="753.5" cy="175.8" r="3.0"/>
<circle cx="773.4" cy="175.7" r="3.0"/>
<circle cx="792.6" cy="175.6" r="3.0"/>
<circle cx="812.2" cy="175.9" r="3.0"/>
<circle cx="831.7" cy="176.0" r="3.0"/>
<circle cx="850.7" cy="175.6" r="3.0"/>
<circle cx="870.2" cy="176.0" r="3.0"/>
<circle cx="889.5" cy="175.9" r="3.0"/>
<circle cx="909.6" cy="176.4" r="3.0"/>
<circle cx="928.7" cy="176.1" r="3.0"/>
<circle cx="949.2" cy="176.0" r="3.0"/>
<circle cx="967.8" cy="176.4" r="3.0"/>
<circle cx="987.4" cy="176.0" r="3.0"/>
<circle cx="1006.8" cy="176.0" r="3.0"/>
<circle cx="1026.7" cy="175.5" r="3.0"/>
<circle cx="1046.7" cy="175.5" r="3.0"/>
<circle cx="577.4" cy="183.3" r="3.0"/>
<circle cx="597.2" cy="183.4" r="3.0"/>
<circle cx="616.9" cy="183.1" r="3.0"/>
<circle cx="635.8" cy="183.8" r="3.0"/>
<circle cx="655.9" cy="183.8" r="3.0"/>
<circle cx="674.9" cy="183.2" r="3.0"/>
<circle cx="694.8" cy="183.3" r="3.0"/>
<circle cx="714.0" cy="183.2" r="3.0"/>
<circle cx="733.6" cy="183.4" r="3.0"/>
<circle cx="753.7" cy="182.9" r="3.0"/>
<circle cx="773.4" cy="183.6" r="3.0"/>
<circle cx="792.2" cy="182.8" r="3.0"/>
<circle cx="812.0" cy="183.6" r="3.0"/>
<circle cx="831.0" cy="183.8" r="3.0"/>
<circle cx="851.5" cy="183.4" r="3.0"/>
<circle cx="870.7" cy="183.7" r="3.0"/>
<circle cx="889.9" cy="183.8" r="3.0"/>
<circle cx="909.9" cy="182.9" r="3.0"/>
<circle cx="929.3" cy="182.8" r="3.0"/>
<circle cx="948.8" cy="183.1" r="3.0"/>
<circle cx="967.7" cy="183.6" r="3.0"/>
<circle cx="987.5" cy="183.3" r="3.0"/>
<circle cx="1006.7" cy="182.8" r="3.0"/>
<circle cx="1026.7" cy="182.8" r="3.0"/>
<circle cx="1045.7" cy="183.2" r="3.0"/>
<circle cx="577.4" cy="190.7" r="3.0"/>
<circle cx="597.7" cy="190.3" r="3.0"/>
<circle cx="617.3" cy="190.7" r="3.0"/>
<circle cx="635.9" cy="190.8" r="3.0"/>
<circle cx="656.0" cy="190.9" r="3.0"/>
<circle cx="675.4" cy="190.9" r="3.0"/>
<circle cx="695.3" cy="190.3" r="3.0"/>
<circle cx="714.3" cy="191.0" r="3.0"/>
<circle cx="734.3" cy="191.1" r="3.0"/>
<circle cx="753.5" cy="191.1" r="3.0"/>
<circle cx="773.0" cy="190.7" r="3.0"/>
<circle cx="792.8" cy="191.1" r="3.0"/>
<circle cx="811.6" cy="190.8" r="3.0"/>
<circle cx="831.7" cy="190.4" r="3.0"/>
<circle cx="851.3" cy="191.2" r="3.0"/>
<circle cx="870.3" cy="190.8" r="3.0"/>
<circle cx="889.9" cy="190.8" r="3.0"/>
<circle cx="909.7" cy="190.7" r="3.0"/>
<circle cx="929.6" cy="191.2" r="3.0"/>
<circle cx="948.8" cy="190.3" r="3.0"/>
<circle cx="968.1" cy="191.1" r="3.0"/>
<circle cx="987.4" cy="191.1" r="3.0"/>
<circle cx="1006.9" cy="191.1" r="3.0"/>
<circle cx="1026.3" cy="191.2" r="3.0"/>
<circle cx="1046.7" cy="190.8" r="3.0"/>
<circle cx="578.0" cy="197.8" r="3.0"/>
<circle cx="596.9" cy="198.3" r="3.0"/>
<circle cx="617.0" cy="198.4" r="3.0"/>
<circle cx="636.4" cy="197.7" r="3.0"/>
<circle cx="656.1" cy="198.1" r="3.0"/>
<circle cx="675.3" cy="197.7" r="3.0"/>
<circle cx="694.4" cy="197.6" r="3.0"/>
<circle cx="714.8" cy="198.3" r="3.0"/>
<circle cx="734.0" cy="197.6" r="3.0"/>
<circle cx="753.5" cy="198.2" r="3.0"/>
<circle cx="773.5" cy="198.6" r="3.0"/>
<circle cx="792.0" cy="197.8" r="3.0"/>
<circle cx="811.5" cy="198.5" r="3.0"/>
<circle cx="831.1" cy="198.2" r="3.0"/>
<circle cx="850.7" cy="197.8" r="3.0"/>
<circle cx="870.5" cy="197.8" r="3.0"/>
<circle cx="890.0" cy="198.0" r="3.0"/>
<circle cx="909.4" cy="198.6" r="3.0"/>
<circle cx="928.6" cy="198.3" r="3.0"/>
<circle cx="948.3" cy="198.5" r="3.0"/>
<circle cx="968.4" cy="197.9" r="3.0"/>
<circle cx="987.6" cy="198.2" r="3.0"/>
<circle cx="1006.8" cy="197.6" r="3.0"/>
<circle cx="1027.2" cy="198.1" r="3.0"/>
<circle cx="1046.4" cy="198.5" r="3.0"/>
<circle cx="577.6" cy="205.3" r="3.0"/>
<circle cx="597.3" cy="205.2" r="3.0"/>
<circle cx="616.4" cy="205.7" r="3.0"/>
<circle cx="636.6" cy="205.0" r="3.0"/>
<circle cx="655.3" cy="206.0" r="3.0"/>
<circle cx="675.4" cy="205.6" r="3.0"/>
<circle cx="694.5" cy="205.2" r="3.0"/>
<circle cx="714.4" cy="205.8" r="3.0"/>
<circle cx="734.0" cy="205.1" r="3.0"/>
<circle cx="753.2" cy="205.9" r="3.0"/>
<circle cx="772.9" cy="205.1" r="3.0"/>
<circle cx="792.3" cy="205.4" r="3.0"/>
<circle cx="812.5" cy="205.0" r="3.0"/>
<circle cx="831.4" cy="205.6" r="3.0"/>
<circle cx="851.2" cy="205.6" r="3.0"/>
<circle cx="871.0" cy="205.3" r="3.0"/>
<circle cx="889.9" cy="205.8" r="3.0"/>
<circle cx="909.8" cy="205.7" r="3.0"/>
<circle cx="929.2" cy="205.5" r="3.0"/>
<circle cx="949.1" cy="205.0" r="3.0"/>
<circle cx="967.7" cy="205.0" r="3.0"/>
<circle cx="988.0" cy="206.0" r="3.0"/>
<circle cx="1007.1" cy="205.9" r="3.0"/>
<circle cx="1026.4" cy="205.3" r="3.0"/>
<circle cx="1046.2" cy="205.6" r="3.0"/>
<circle cx="577.3" cy="213.4" r="3.0"/>
<circle cx="597.4" cy="213.2" r="3.0"/>
<circle cx="616.7" cy="213.1" r="3.0"/>
<circle cx="636.8" cy="213.2" r="3.0"/>
<circle cx="656.0" cy="212.8" r="3.0"/>
<circle cx="675.0" cy="213.0" r="3.0"/>
<circle cx="695.2" cy="213.3" r="3.0"/>
<circle cx="714.8" cy="213.1" r="3.0"/>
<circle cx="734.3" cy="212.8" r="3.0"/>
<circle cx="753.7" cy="212.8" r="3.0"/>
<circle cx="772.8" cy="212.4" r="3.0"/>
<circle cx="792.2" cy="212.8" r="3.0"/>
<circle cx="811.6" cy="212.8" r="3.0"/>
<circle cx="831.0" cy="212.6" r="3.0"/>
<circle cx="851.4" cy="213.2" r="3.0"/>
<circle cx="870.4" cy="213.2" r="3.0"/>
<circle cx="890.4" cy="212.4" r="3.0"/>
<circle cx="909.1" cy="213.2" r="3.0"/>
<circle cx="929.4" cy="212.6" r="3.0"/>
<circle cx="949.2" cy="213.1" r="3.0"/>
<circle cx="968.4" cy="212.6" r="3.0"/>
<circle cx="988.2" cy="213.4" r="3.0"/>
<circle cx="1006.9" cy="212.6" r="3.0"/>
<circle cx="1026.3" cy="212.4" r="3.0"/>
<circle cx="1046.6" cy="213.4" r="3.0"/>
<circle cx="577.5" cy="220.2" r="3.0"/>
<circle cx="597.8" cy="220.4" r="3.0"/>
<circle cx="616.5" cy="220.0" r="3.0"/>
<circle cx="636.5" cy="220.2" r="3.0"/>
<circle cx="655.5" cy="220.2" r="3.0"/>
<circle cx="675.6" cy="219.8" r="3.0"/>
<circle cx="695.4" cy="220.6" r="3.0"/>
<circle cx="714.9" cy="220.8" r="3.0"/>
<circle cx="734.0" cy="220.5" r="3.0"/>
<circle cx="753.9" cy="220.1" r="3.0"/>
<circle cx="772.9" cy="220.6" r="3.0"/>
<circle cx="792.5" cy="220.4" r="3.0"/>
<circle cx="811.9" cy="220.7" r="3.0"/>
<circle cx="831.2" cy="220.2" r="3.0"/>
<circle cx="851.2" cy="220.6" r="3.0"/>
<circle cx="871.1" cy="220.7" r="3.0"/>
<circle cx="889.7" cy="220.3" r="3.0"/>
<circle cx="909.4" cy="220.3" r="3.0"/>
<circle cx="929.2" cy="220.5" r="3.0"/>
<circle cx="948.7" cy="219.9" r="3.0"/>
<circle cx="967.9" cy="220.1" r="3.0"/>
<circle cx="987.8" cy="220.5" r="3.0"/>
<circle cx="1007.0" cy="219.8" r="3.0"/>
<circle cx="1026.5" cy="220.3" r="3.0"/>
<circle cx="1045.9" cy="220.4" r="3.0"/>
<circle cx="578.0" cy="227.4" r="3.0"/>
<circle cx="597.7" cy="228.0" r="3.0"/>
<circle cx="617.0" cy="227.9" r="3.0"/>
<circle cx="635.8" cy="227.2" r="3.0"/>
<circle cx="655.4" cy="227.8" r="3.0"/>
<circle cx="674.9" cy="228.0" r="3.0"/>
<circle cx="695.3" cy="227.8" r="3.0"/>
<circle cx="714.6" cy="227.9" r="3.0"/>
<circle cx="733.4" cy="227.8" r="3.0"/>
<circle cx="753.4" cy="228.0" r="3.0"/>
<circle cx="772.7" cy="227.8" r="3.0"/>
<circle cx="792.2" cy="227.3" r="3.0"/>
<circle cx="812.5" cy="227.9" r="3.0"/>
<circle cx="831.9" cy="228.1" r="3.0"/>
<circle cx="850.8" cy="228.1" r="3.0"/>
<circle cx="870.6" cy="228.0" r="3.0"/>
<circle cx="890.3" cy="228.0" r="3.0"/>
<circle cx="910.1" cy="228.2" r="3.0"/>
<circle cx="929.6" cy="227.7" r="3.0"/>
<circle cx="949.0" cy="227.7" r="3.0"/>
<circle cx="968.3" cy="227.4" r="3.0"/>
<circle cx="987.7" cy="227.3" r="3.0"/>
<circle cx="1007.6" cy="227.6" r="3.0"/>
<circle cx="1026.7" cy="227.3" r="3.0"/>
<circle cx="1046.2" cy="228.1" r="3.0"/>
<circle cx="577.6" cy="235.5" r="3.0"/>
<circle cx="597.7" cy="234.7" r="3.0"/>
<circle cx="616.4" cy="234.9" r="3.0"/>
<circle cx="636.2" cy="235.1" r="3.0"/>
<circle cx="655.7" cy="235.2" r="3.0"/>
<circle cx="675.8" cy="234.9" r="3.0"/>
<circle cx="694.8" cy="234.7" r="3.0"/>
<circle cx="714.5" cy="235.3" r="3.0"/>
<circle cx="734.0" cy="235.2" r="3.0"/>
<circle cx="753.6" cy="235.5" r="3.0"/>
<circle cx="773.3" cy="235.5" r="3.0"/>
<circle cx="792.2" cy="235.3" r="3.0"/>
<circle cx="811.6" cy="235.1" r="3.0"/>
<circle cx="831.8" cy="235.6" r="3.0"/>
<circle cx="850.9" cy="234.9" r="3.0"/>
<circle cx="870.6" cy="234.8" r="3.0"/>
<circle cx="890.5" cy="234.9" r="3.0"/>
<circle cx="909.2" cy="235.5" r="3.0"/>
<circle cx="929.5" cy="235.1" r="3.0"/>
<circle cx="948.8" cy="235.2" r="3.0"/>
<circle cx="967.8" cy="235.2" r="3.0"/>
<circle cx="987.5" cy="235.4" r="3.0"/>
<circle cx="1007.2" cy="235.3" r="3.0"/>
<circle cx="1026.7" cy="234.9" r="3.0"/>
<circle cx="1046.0" cy="235.4" r="3.0"/>
<circle cx="577.2" cy="243.0" r="3.0"/>
<circle cx="597.4" cy="242.5" r="3.0"/>
<circle cx="616.3" cy="243.0" r="3.0"/>
<circle cx="636.7" cy="242.8" r="3.0"/>
<circle cx="655.7" cy="242.0" r="3.0"/>
<circle cx="675.1" cy="242.5" r="3.0"/>
<circle cx="694.5" cy="242.0" r="3.0"/>
<circle cx="714.5" cy="242.5" r="3.0"/>
<circle cx="733.6" cy="242.5" r="3.0"/>
<circle cx="753.0" cy="242.9" r="3.0"/>
<circle cx="773.1" cy="242.2" r="3.0"/>
<circle cx="792.0" cy="242.2" r="3.0"/>
<circle cx="812.5" cy="242.7" r="3.0"/>
<circle cx="831.5" cy="242.3" r="3.0"/>
<circle cx="851.2" cy="242.2" r="3.0"/>
<circle cx="871.1" cy="242.5" r="3.0"/>
<circle cx="890.2" cy="242.8" r="3.0"/>
<circle cx="909.8" cy="242.4" r="3.0"/>
<circle cx="929.3" cy="242.5" r="3.0"/>
<circle cx="948.2" cy="242.0" r="3.0"/>
<circle cx="968.1" cy="242.8" r="3.0"/>
<circle cx="988.2" cy="242.1" r="3.0"/>
<circle cx="1006.8" cy="242.0" r="3.0"/>
<circle cx="1026.3" cy="242.3" r="3.0"/>
<circle cx="1046.6" cy="242.0" r="3.0"/>
<circle cx="578.2" cy="249.8" r="3.0"/>
<circle cx="597.7" cy="249.9" r="3.0"/>
<circle cx="616.8" cy="250.3" r="3.0"/>
<circle cx="636.4" cy="249.7" r="3.0"/>
<circle cx="656.1" cy="249.9" r="3.0"/>
<circle cx="675.2" cy="249.5" r="3.0"/>
<circle cx="694.7" cy="250.0" r="3.0"/>
<circle cx="714.5" cy="249.8" r="3.0"/>
<circle cx="733.5" cy="250.2" r="3.0"/>
<circle cx="753.9" cy="250.2" r="3.0"/>
<circle cx="773.5" cy="249.7" r="3.0"/>
<circle cx="792.0" cy="250.4" r="3.0"/>
<circle cx="812.0" cy="250.4" r="3.0"/>
<circle cx="831.7" cy="250.1" r="3.0"/>
<circle cx="850.7" cy="249.6" r="3.0"/>
<circle cx="871.0" cy="250.1" r="3.0"/>
<circle cx="890.2" cy="250.4" r="3.0"/>
<circle cx="909.8" cy="249.9" r="3.0"/>
<circle cx="928.7" cy="250.2" r="3.0"/>
<circle cx="948.2" cy="249.4" r="3.0"/>
<circle cx="968.4" cy="250.4" r="3.0"/>
<circle cx="988.1" cy="249.7" r="3.0"/>
<circle cx="1007.7" cy="250.4" r="3.0"/>
<circle cx="1026.5" cy="249.4" r="3.0"/>
<circle cx="1046.6" cy="250.3" r="3.0"/>
<circle cx="577.7" cy="257.4" r="3.0"/>
<circle cx="597.4" cy="257.5" r="3.0"/>
<circle cx="617.1" cy="257.2" r="3.0"/>
<circle cx="636.4" cy="257.3" r="3.0"/>
<circle cx="656.4" cy="257.7" r="3.0"/>
<circle cx="675.0" cy="257.2" r="3.0"/>
<circle cx="695.0" cy="256.9" r="3.0"/>
<circle cx="714.8" cy="256.9" r="3.0"/>
<circle cx="733.7" cy="257.5" r="3.0"/>
<circle cx="752.9" cy="257.7" r="3.0"/>
<circle cx="773.1" cy="257.8" r="3.0"/>
<circle cx="792.7" cy="257.4" r="3.0"/>
<circle cx="812.0" cy="257.2" r="3.0"/>
<circle cx="831.4" cy="257.5" r="3.0"/>
<circle cx="851.0" cy="257.7" r="3.0"/>
<circle cx="870.3" cy="257.0" r="3.0"/>
<circle cx="889.8" cy="257.1" r="3.0"/>
<circle cx="909.9" cy="257.8" r="3.0"/>
<circle cx="928.7" cy="257.6" r="3.0"/>
<circle cx="948.5" cy="257.4" r="3.0"/>
<circle cx="968.4" cy="257.3" r="3.0"/>
<circle cx="987.8" cy="257.7" r="3.0"/>
<circle cx="1007.7" cy="257.2" r="3.0"/>
<circle cx="1027.0" cy="257.6" r="3.0"/>
<circle cx="1046.7" cy="257.2" r="3.0"/>
<circle cx="577.9" cy="264.9" r="3.0"/>
<circle cx="597.6" cy="264.3" r="3.0"/>
<circle cx="616.6" cy="265.0" r="3.0"/>
<circle cx="636.7" cy="265.1" r="3.0"/>
<circle cx="655.9" cy="264.6" r="3.0"/>
<circle cx="675.2" cy="265.0" r="3.0"/>
<circle cx="694.6" cy="264.5" r="3.0"/>
<circle cx="714.0" cy="264.8" r="3.0"/>
<circle cx="734.0" cy="264.7" r="3.0"/>
<circle cx="753.6" cy="265.0" r="3.0"/>
<circle cx="772.9" cy="264.3" r="3.0"/>
<circle cx="792.9" cy="264.4" r="3.0"/>
<circle cx="811.6" cy="264.5" r="3.0"/>
<circle cx="831.6" cy="264.6" r="3.0"/>
<circle cx="851.1" cy="264.4" r="3.0"/>
<circle cx="871.1" cy="264.4" r="3.0"/>
<circle cx="890.4" cy="265.1" r="3.0"/>
<circle cx="909.2" cy="264.2" r="3.0"/>
<circle cx="929.2" cy="264.2" r="3.0"/>
<circle cx="948.3" cy="264.5" r="3.0"/>
<circle cx="968.6" cy="264.5" r="3.0"/>
<circle cx="987.4" cy="264.6" r="3.0"/>
<circle cx="1007.2" cy="265.1" r="3.0"/>
<circle cx="1027.2" cy="264.4" r="3.0"/>
<circle cx="1046.1" cy="265.1" r="3.0"/>
<circle cx="578.1" cy="272.4" r="3.0"/>
<circle cx="597.1" cy="272.4" r="3.0"/>
<circle cx="616.7" cy="271.7" r="3.0"/>
<circle cx="636.8" cy="272.5" r="3.0"/>
<circle cx="655.9" cy="272.5" r="3.0"/>
<circle cx="675.4" cy="272.2" r="3.0"/>
<circle cx="695.4" cy="272.1" r="3.0"/>
<circle cx="714.1" cy="271.9" r="3.0"/>
<circle cx="734.3" cy="271.7" r="3.0"/>
<circle cx="753.9" cy="271.7" r="3.0"/>
<circle cx="773.5" cy="272.5" r="3.0"/>
<circle cx="792.2" cy="271.7" r="3.0"/>
<circle cx="811.8" cy="271.9" r="3.0"/>
<circle cx="831.3" cy="272.6" r="3.0"/>
<circle cx="851.1" cy="271.6" r="3.0"/>
<circle cx="870.8" cy="272.4" r="3.0"/>
<circle cx="890.1" cy="271.9" r="3.0"/>
<circle cx="910.0" cy="272.3" r="3.0"/>
<circle cx="928.8" cy="271.7" r="3.0"/>
<circle cx="949.2" cy="271.7" r="3.0"/>
<circle cx="968.2" cy="272.0" r="3.0"/>
<circle cx="987.2" cy="272.4" r="3.0"/>
<circle cx="1006.9" cy="271.8" r="3.0"/>
<circle cx="1027.2" cy="272.4" r="3.0"/>
<circle cx="1046.3" cy="271.8" r="3.0"/>
<circle cx="577.4" cy="279.4" r="3.0"/>
<circle cx="597.8" cy="279.3" r="3.0"/>
<circle cx="616.9" cy="279.0" r="3.0"/>
<circle cx="636.8" cy="279.4" r="3.0"/>
<circle cx="655.7" cy="280.0" r="3.0"/>
<circle cx="675.4" cy="279.1" r="3.0"/>
<circle cx="695.4" cy="279.9" r="3.0"/>
<circle cx="714.6" cy="279.6" r="3.0"/>
<circle cx="734.4" cy="279.3" r="3.0"/>
<circle cx="753.7" cy="279.9" r="3.0"/>
<circle cx="773.2" cy="279.5" r="3.0"/>
<circle cx="792.0" cy="279.0" r="3.0"/>
<circle cx="812.4" cy="279.2" r="3.0"/>
<circle cx="831.2" cy="279.1" r="3.0"/>
<circle cx="851.2" cy="279.4" r="3.0"/>
<circle cx="870.5" cy="279.5" r="3.0"/>
<circle cx="890.3" cy="279.7" r="3.0"/>
<circle cx="909.4" cy="279.2" r="3.0"/>
<circle cx="929.5" cy="279.6" r="3.0"/>
<circle cx="949.0" cy="280.0" r="3.0"/>
<circle cx="968.4" cy="279.9" r="3.0"/>
<circle cx="987.3" cy="279.3" r="3.0"/>
<circle cx="1007.3" cy="279.1" r="3.0"/>
<circle cx="1026.5" cy="279.6" r="3.0"/>
<circle cx="1045.8" cy="280.0" r="3.0"/>
<circle cx="577.7" cy="286.5" r="3.0"/>
<circle cx="597.0" cy="286.4" r="3.0"/>
<circle cx="616.4" cy="287.1" r="3.0"/>
<circle cx="635.8" cy="287.0" r="3.0"/>
<circle cx="656.1" cy="287.3" r="3.0"/>
<circle cx="675.3" cy="286.9" r="3.0"/>
<circle cx="695.1" cy="286.8" r="3.0"/>
<circle cx="714.3" cy="287.0" r="3.0"/>
<circle cx="733.7" cy="286.6" r="3.0"/>
<circle cx="753.7" cy="287.1" r="3.0"/>
<circle cx="772.7" cy="287.3" r="3.0"/>
<circle cx="792.6" cy="286.4" r="3.0"/>
<circle cx="811.9" cy="287.3" r="3.0"/>
<circle cx="831.4" cy="286.4" r="3.0"/>
<circle cx="850.6" cy="287.3" r="3.0"/>
<circle cx="870.2" cy="286.4" r="3.0"/>
<circle cx="890.3" cy="286.4" r="3.0"/>
<circle cx="909.9" cy="286.4" r="3.0"/>
<circle cx="928.6" cy="287.2" r="3.0"/>
<circle cx="948.4" cy="286.4" r="3.0"/>
<circle cx="968.2" cy="287.3" r="3.0"/>
<circle cx="988.0" cy="287.2" r="3.0"/>
<circle cx="1006.7" cy="287.4" r="3.0"/>
<circle cx="1026.7" cy="287.4" r="3.0"/>
<circle cx="1046.7" cy="286.5" r="3.0"/>
<circle cx="597.4" cy="294.3" r="3.0"/>
<circle cx="616.5" cy="294.7" r="3.0"/>
<circle cx="636.2" cy="294.6" r="3.0"/>
<circle cx="656.0" cy="293.8" r="3.0"/>
<circle cx="675.1" cy="294.4" r="3.0"/>
<circle cx="695.2" cy="294.0" r="3.0"/>
<circle cx="714.1" cy="294.6" r="3.0"/>
<circle cx="733.7" cy="294.3" r="3.0"/>
<circle cx="753.4" cy="294.7" r="3.0"/>
<circle cx="773.2" cy="293.9" r="3.0"/>
<circle cx="792.7" cy="294.0" r="3.0"/>
<circle cx="812.0" cy="294.1" r="3.0"/>
<circle cx="831.5" cy="294.3" r="3.0"/>
<circle cx="850.9" cy="294.7" r="3.0"/>
<circle cx="870.6" cy="294.2" r="3.0"/>
<circle cx="890.2" cy="293.9" r="3.0"/>
<circle cx="909.7" cy="294.1" r="3.0"/>
<circle cx="928.6" cy="294.8" r="3.0"/>
<circle cx="949.1" cy="294.1" r="3.0"/>
<circle cx="968.3" cy="294.3" r="3.0"/>
<circle cx="987.9" cy="294.1" r="3.0"/>
<circle cx="1007.7" cy="294.7" r="3.0"/>
<circle cx="1026.4" cy="294.1" r="3.0"/>
<circle cx="1046.4" cy="294.6" r="3.0"/>
</g>
<circle class="mover" cx="577.3" cy="294.3" r="5.2" fill="none" stroke="#34d399" stroke-width="1.6"><animate attributeName="r" dur="4s" repeatCount="indefinite" values="5.2;14.2;5.2" keyTimes="0;0.5;1"/><animate attributeName="stroke-opacity" dur="4s" repeatCount="indefinite" values=".9;0;.9" keyTimes="0;0.5;1"/></circle>
<circle cx="577.3" cy="294.3" r="5.2" fill="#34d399" filter="url(#soft)"/>
<path d="M 577.3 301.5 L 577.3 304.0" stroke="#34d399" stroke-opacity=".5" stroke-width="1.3" fill="none"/>
<text class="nm" x="577.3" y="315.0" fill="#6ee7b7">this one writes it</text>
<text class="nm" x="24" y="332.0">Every correction lands in one agent and stops.</text>
<text class="sb" x="24" y="351.0">The next engineer hits the same wrong assumption</text>
<text class="sb" x="24" y="370.0">and pays to correct it again. Nobody can say</text>
<text class="sb" x="24" y="389.0">who decided what, or on what basis.</text>
<text class="nm" x="568.0" y="332.0">One writes it. A reviewer that did not write it</text>
<text class="sb" x="568.0" y="351.0">grades and signs it. The other 499 inherit it</text>
<text class="sb" x="568.0" y="370.0">already approved, and the signature travels</text>
<text class="sb" x="568.0" y="389.0">with it — who trusted it, when, on what basis.</text>
<line x1="24" y1="424" x2="1056" y2="424" stroke="#1b212c" stroke-width="1"/>
<text x="540" y="454" text-anchor="middle" font-size="14.5" font-weight="600" fill="#e6e9ef">Same five hundred agents. Same correction. The difference is whether the company keeps it.</text>
</svg>
